<?xml version="1.0" standalone="no"?>
<!DOCTYPE svg PUBLIC "-//W3C//DTD SVG 20010904//EN"
 "http://www.w3.org/TR/2001/REC-SVG-20010904/DTD/svg10.dtd">
<svg version="1.0" xmlns="http://www.w3.org/2000/svg"
 width="512.000000pt" height="512.000000pt" viewBox="0 0 512.000000 512.000000"
 preserveAspectRatio="xMidYMid meet">

<g transform="translate(0.000000,512.000000) scale(0.100000,-0.100000)"
fill="grey" stroke="none">
<path d="M1469 5057 c-157 -59 -452 -273 -653 -473 -524 -524 -796 -1218 -773
-1968 13 -407 101 -748 287 -1116 387 -761 1106 -1283 1960 -1421 162 -27 492
-36 656 -20 639 65 1222 348 1662 806 170 176 339 410 430 594 34 69 37 82 37
160 0 72 -5 96 -27 143 -52 111 -145 185 -264 208 -53 11 -77 9 -180 -9 -409
-72 -799 -45 -1165 80 -820 279 -1404 983 -1536 1849 -23 155 -23 492 0 639 9
57 16 105 14 106 -1 1 -27 7 -57 13 l-55 11 62 -4 62 -5 6 34 c16 84 -35 216
-111 286 -72 66 -136 93 -234 97 -55 2 -98 -2 -121 -10z m87 -391 c-18 -71
-36 -302 -36 -456 0 -412 89 -797 269 -1165 401 -817 1174 -1364 2078 -1470
227 -27 611 -15 785 24 23 6 44 8 46 6 7 -6 -55 -112 -116 -200 -195 -281
-452 -519 -742 -687 -597 -346 -1335 -403 -1977 -153 -1038 405 -1636 1498
-1418 2590 120 601 489 1141 1005 1474 52 34 98 61 103 61 5 0 6 -11 3 -24z"/>
</g>
</svg>
