
<svg version="1.0" xmlns="http://www.w3.org/2000/svg"
 width="512.000000pt" height="512.000000pt" viewBox="0 0 512.000000 512.000000"
 preserveAspectRatio="xMidYMid meet">

<g transform="translate(0.000000,512.000000) scale(0.100000,-0.100000)"
fill="#000000" stroke="none">
<path d="M2480 5104 c-45 -20 -87 -60 -111 -107 -19 -35 -20 -57 -17 -316 l3
-278 27 -39 c15 -21 44 -50 65 -64 31 -21 48 -25 113 -25 65 0 82 4 113 25 21
14 50 43 65 64 l27 39 3 278 c3 259 2 281 -17 316 -53 103 -172 150 -271 107z"/>
<path d="M815 4416 c-40 -17 -95 -72 -111 -113 -18 -43 -18 -125 1 -170 19
-44 333 -365 390 -398 90 -52 181 -39 255 35 74 74 87 165 35 255 -33 57 -354
371 -398 390 -44 18 -131 19 -172 1z"/>
<path d="M4131 4415 c-43 -19 -365 -337 -396 -390 -52 -90 -39 -181 35 -255
73 -74 165 -87 255 -35 22 13 117 101 211 197 188 190 199 209 192 308 -5 68
-36 120 -94 160 -46 31 -150 39 -203 15z"/>
<path d="M2420 3834 c-201 -26 -408 -102 -565 -207 -83 -56 -108 -77 -203
-170 -172 -170 -294 -396 -348 -647 -26 -119 -26 -381 0 -500 110 -512 494
-896 1006 -1006 119 -26 381 -26 500 0 259 56 459 164 646 350 193 193 304
394 360 656 26 119 26 381 0 500 -109 507 -483 886 -986 1001 -83 19 -331 33
-410 23z m400 -462 c267 -88 469 -293 555 -562 35 -109 45 -305 22 -415 -37
-172 -112 -311 -236 -436 -125 -124 -264 -199 -436 -236 -110 -23 -306 -13
-415 22 -273 87 -475 289 -566 565 -26 79 -28 96 -28 250 0 159 1 168 32 260
84 252 282 458 518 541 117 41 173 49 319 45 124 -3 151 -7 235 -34z"/>
<path d="M125 2751 c-141 -66 -167 -247 -52 -348 58 -51 85 -55 378 -51 264 3
266 3 302 28 21 14 50 43 65 64 24 35 27 49 27 116 0 65 -4 82 -25 113 -14 21
-43 50 -64 65 l-39 27 -276 3 c-252 2 -279 0 -316 -17z"/>
<path d="M4394 2756 c-43 -19 -101 -81 -115 -123 -30 -92 7 -198 88 -253 36
-25 38 -25 302 -28 293 -4 320 0 378 51 117 103 86 291 -59 351 -51 22 -546
23 -594 2z"/>
<path d="M1154 1410 c-57 -13 -97 -46 -270 -222 -188 -190 -199 -209 -192
-308 8 -105 83 -180 188 -188 99 -7 118 4 308 192 177 174 215 222 226 288 17
96 -59 212 -156 236 -52 13 -59 13 -104 2z"/>
<path d="M3856 1408 c-25 -7 -58 -29 -86 -57 -74 -74 -87 -165 -35 -256 13
-22 101 -117 197 -211 190 -188 209 -199 308 -192 105 8 180 84 188 189 7 98
-5 117 -192 307 -94 96 -189 184 -211 197 -48 28 -116 37 -169 23z"/>
<path d="M2475 837 c-41 -19 -95 -74 -111 -114 -11 -24 -14 -97 -14 -298 0
-242 2 -269 19 -303 84 -162 299 -162 382 1 19 35 20 57 17 316 l-3 278 -27
39 c-44 63 -90 88 -167 91 -41 2 -78 -2 -96 -10z"/>
</g>
</svg>
